<?xml version="1.0" encoding="iso-8859-1"?>
<!-- Generator: Adobe Illustrator 19.0.0, SVG Export Plug-In . SVG Version: 6.00 Build 0)  -->
<svg fill="#E91E63" version="1.1" id="Layer_1" xmlns="http://www.w3.org/2000/svg" xmlns:xlink="http://www.w3.org/1999/xlink" x="0px" y="0px"
	 viewBox="0 0 512 512" style="enable-background:new 0 0 512 512;" xml:space="preserve">
<g>
	<g>
		<g>
			<path d="M506.311,267.378h-93.063c-3.141,0-5.689,2.547-5.689,5.689v40.565c0,3.141,2.547,5.689,5.689,5.689h93.063
				c3.141,0,5.689-2.548,5.689-5.689v-40.565C512,269.926,509.453,267.378,506.311,267.378z"/>
			<path d="M379.114,80.972H132.886c-3.141,0-5.689,2.547-5.689,5.689v338.679c0,3.141,2.547,5.689,5.689,5.689h246.23
				c3.143,0,5.689-2.547,5.689-5.689V86.661C384.803,83.519,382.257,80.972,379.114,80.972z M321.88,271.208l-109.804,55.938
				c-11.308,5.761-24.814-2.455-24.814-15.208V200.064c0-12.714,13.463-20.991,24.814-15.208l109.804,55.938
				C334.287,247.115,334.284,264.889,321.88,271.208z"/>
			<path d="M506.311,192.68h-93.063c-3.141,0-5.689,2.547-5.689,5.689v40.565c0,3.141,2.547,5.689,5.689,5.689h93.063
				c3.141,0,5.689-2.547,5.689-5.689v-40.565C512,195.227,509.453,192.68,506.311,192.68z"/>
			<path d="M98.752,267.378H5.689c-3.141,0-5.689,2.547-5.689,5.689v40.565c0,3.141,2.547,5.689,5.689,5.689h93.063
				c3.141,0,5.689-2.548,5.689-5.689v-40.565C104.441,269.926,101.894,267.378,98.752,267.378z"/>
			<path d="M98.752,192.68H5.689c-3.141,0-5.689,2.547-5.689,5.689v40.565c0,3.141,2.547,5.689,5.689,5.689h93.063
				c3.141,0,5.689-2.547,5.689-5.689v-40.565C104.441,195.227,101.894,192.68,98.752,192.68z"/>
			<path d="M98.752,342.077H5.689c-3.141,0-5.689,2.547-5.689,5.689v43.44c0,21.993,17.829,39.822,39.822,39.822h58.93
				c3.141,0,5.689-2.547,5.689-5.689v-77.574C104.441,344.624,101.894,342.077,98.752,342.077z"/>
			<path d="M506.311,342.077h-93.063c-3.141,0-5.689,2.547-5.689,5.689v77.574c0,3.141,2.547,5.689,5.689,5.689h58.93
				c21.993,0,39.822-17.829,39.822-39.822v-43.44C512,344.624,509.453,342.077,506.311,342.077z"/>
			<path d="M472.178,80.973h-58.93c-3.141,0-5.689,2.547-5.689,5.689v77.574c0,3.141,2.547,5.689,5.689,5.689h93.063
				c3.141,0,5.689-2.547,5.689-5.689v-43.44C512,98.802,494.171,80.973,472.178,80.973z"/>
			<path d="M98.752,80.973h-58.93C17.829,80.973,0,98.802,0,120.795v43.44c0,3.141,2.547,5.689,5.689,5.689h93.063
				c3.141,0,5.689-2.547,5.689-5.689V86.662C104.441,83.52,101.894,80.973,98.752,80.973z"/>
		</g>
	</g>
</g>
<g>
</g>
<g>
</g>
<g>
</g>
<g>
</g>
<g>
</g>
<g>
</g>
<g>
</g>
<g>
</g>
<g>
</g>
<g>
</g>
<g>
</g>
<g>
</g>
<g>
</g>
<g>
</g>
<g>
</g>
</svg>
