<svg class="vidyard-horizontal-white" aria-labelledby="vidyard-horizontal-white-title" xmlns="http://www.w3.org/2000/svg" viewBox="0 0 193.2 51"><style>.vidyard-horizontal-white .st0{fill:#FFF;}.vidyard-horizontal-white .st1{fill:none;}</style><title id="vidyard-horizontal-white-title">Vidyard</title><path class="st0" d="M183.7,11c-0.9,0-1.7,0.8-1.7,1.7c0,0,0,0,0,0v7.8c-4.2-3.7-10.5-3.3-14.2,0.9c-3.7,4.2-3.3,10.5,0.9,14.2c4.2,3.7,10.5,3.3,14.2-0.9c1.6-1.8,2.5-4.2,2.5-6.7V12.7C185.5,11.8,184.7,11,183.7,11C183.7,11,183.7,11,183.7,11z M182,28.1c0,3.7-3,6.7-6.7,6.7c-3.7,0-6.7-3-6.7-6.7s3-6.7,6.7-6.7l0,0C179,21.4,182,24.4,182,28.1z"></path><path class="st0" d="M149.9,28.1c0-5.6-4.5-10.1-10.1-10.1c-5.6,0-10.1,4.5-10.1,10.1c0,5.6,4.5,10.1,10.1,10.1c2.5,0,4.9-0.9,6.7-2.5v0.8c-0.1,0.9,0.6,1.8,1.6,1.8s1.8-0.6,1.8-1.6c0-0.1,0-0.2,0-0.3V28.1L149.9,28.1L149.9,28.1z M139.9,34.8c-3.7,0-6.7-3-6.7-6.7s3-6.7,6.7-6.7c3.7,0,6.7,3,6.7,6.7c0,0,0,0,0,0C146.5,31.8,143.5,34.8,139.9,34.8z"></path><path class="st0" d="M124.6,18c-0.9,0-1.7,0.8-1.7,1.7v8.4c0,3.7-3,6.7-6.7,6.7c-3.7,0-6.7-3-6.7-6.7v-8.4c-0.1-0.9-0.9-1.6-1.8-1.6c-0.8,0.1-1.5,0.7-1.6,1.6v8.4c0,4.9,3.6,9.1,8.4,9.9v5.4c0.1,0.9,0.9,1.6,1.8,1.6c0.8-0.1,1.5-0.7,1.6-1.6V38c4.8-0.8,8.4-5,8.4-9.9v-8.4C126.3,18.8,125.5,18,124.6,18L124.6,18z"></path><path class="st0" d="M165.2,19.4c0-0.1,0-0.2-0.1-0.2c-0.1-0.3-0.2-0.5-0.4-0.7c-0.2-0.2-0.3-0.3-0.5-0.4c-0.2-0.1-0.4-0.1-0.7-0.1l0,0c-5.6,0-10.1,4.5-10.1,10.1v8.4c-0.1,0.9,0.6,1.8,1.6,1.8s1.8-0.6,1.8-1.6c0-0.1,0-0.2,0-0.3v-8.4c0-3.7,3-6.7,6.7-6.7c0.9,0,1.7-0.8,1.7-1.7C165.2,19.6,165.2,19.5,165.2,19.4z"></path><path class="st0" d="M77.2,18c-0.9,0-1.7,0.8-1.7,1.7v16.8c-0.1,0.9,0.6,1.8,1.6,1.8c0.9,0.1,1.8-0.6,1.8-1.6c0-0.1,0-0.2,0-0.3V19.7C78.9,18.8,78.2,18,77.2,18z"></path><path class="st0" d="M71.1,18.2L71.1,18.2c-0.8-0.4-1.9-0.1-2.3,0.8l-6.8,13.7l-6.9-13.7c-0.5-0.8-1.6-0.9-2.4-0.4c-0.6,0.4-0.9,1.2-0.6,1.9l8.4,16.8c0.4,0.8,1.5,1.2,2.3,0.7c0.3-0.2,0.6-0.4,0.7-0.7l8.4-16.8C72.3,19.6,71.9,18.6,71.1,18.2C71.1,18.2,71.1,18.2,71.1,18.2z"></path><path class="st0" d="M100.9,11c-0.9,0-1.7,0.8-1.7,1.7v7.8C95,16.8,88.6,17.2,85,21.4c-3.7,4.2-3.3,10.5,0.9,14.2s10.5,3.3,14.2-0.9c1.6-1.8,2.5-4.2,2.5-6.7V12.7C102.6,11.8,101.8,11,100.9,11C100.9,11,100.9,11,100.9,11z M99.2,28.1c0,3.7-3,6.7-6.7,6.7s-6.7-3-6.7-6.7s3-6.7,6.7-6.7C96.2,21.4,99.2,24.4,99.2,28.1C99.2,28.1,99.2,28.1,99.2,28.1L99.2,28.1z"></path><path class="st0" d="M23.1,6.7c1.7,0,3.4,0.2,5.1,0.6c0.4,0.1,0.8-0.1,1-0.5l0,0c0.2-0.5-0.1-1-0.5-1.1c0,0-0.1,0-0.1,0c-1.8-0.4-3.6-0.7-5.5-0.7c-1.8,0-3.6,0.2-5.4,0.6c-0.5,0.1-0.8,0.6-0.7,1.1c0,0,0,0.1,0,0.1l0,0c0.2,0.4,0.6,0.6,1,0.5C19.7,6.9,21.4,6.7,23.1,6.7z"></path><path class="st0" d="M34,9.1L34,9.1c0,0.4,0.1,0.7,0.4,0.9c9.9,6.3,12.9,19.4,6.6,29.3s-19.4,12.9-29.3,6.6S-1.2,26.5,5.1,16.6c1.7-2.7,4-5,6.7-6.7c0.3-0.2,0.5-0.5,0.4-0.9l0,0c-0.1-0.5-0.5-0.8-1-0.7c-0.1,0-0.2,0.1-0.3,0.1c-10.8,6.7-14.1,21-7.4,31.8s21,14.1,31.8,7.4c10.8-6.7,14.1-21,7.4-31.8c-1.8-3-4.3-5.5-7.3-7.3c-0.4-0.3-1-0.1-1.2,0.3C34.1,8.8,34,8.9,34,9.1z"></path><path class="st1" d="M22,27.7c-0.9-0.8-2-1.2-3.2-1.2c-2.8,0.1-5,2.3-4.9,5.1c0,0.1,0,0.1,0,0.2c-0.1,2.8,2,5.1,4.8,5.2c0,0,0.1,0,0.1,0c0.8,0,1.6-0.2,2.3-0.5c1.7-0.9,2.7-2.8,2.7-4.7C23.7,30.2,23.1,28.8,22,27.7z"></path><path class="st0" d="M31.2,16c0.5-3.5,1.1-7.1,1.6-10c1.7,0.1,3.1-1.2,3.2-2.8C36,1.5,34.7,0.1,33.1,0c-1.7-0.1-3.1,1.2-3.2,2.8c-0.1,1.2,0.6,2.3,1.6,2.8l-3.6,9.4c-1.6-0.3-3.2-0.5-4.8-0.5c-1.6,0-3.1,0.2-4.7,0.5l-3.6-9.4c1.2-0.6,1.9-2,1.5-3.4c-0.4-1.6-2-2.6-3.6-2.2c-1.6,0.4-2.6,2-2.2,3.6c0.3,1.4,1.6,2.4,3.1,2.3c0.4,2.9,1,6.5,1.6,10c-3.4,1.2-6.4,3-9,5.5c-0.3,0.3-0.4,0.7-0.4,1.1L8,40.3c6.8,8.3,19.1,9.6,27.4,2.7c1-0.8,1.9-1.7,2.7-2.7l0.3-2.7l0,0c-0.9,0.5-1.8,0.7-2.8,0.7c-3.4,0-6.2-2.8-6.2-6.3c0-0.1,0-0.2,0-0.3c-0.2-3.4,2.5-6.4,5.9-6.5c0.1,0,0.2,0,0.3,0c1.5,0,2.9,0.5,4,1.5l0.1,0.2l0.5-4.3c0.1-0.4-0.1-0.8-0.4-1.1C37.5,19,34.5,17.2,31.2,16z M21.6,37.7c-0.9,0.5-1.9,0.7-2.8,0.7c-3.5,0-6.3-2.9-6.2-6.3c0-0.1,0-0.2,0-0.3c-0.2-3.5,2.5-6.4,6-6.6c0.1,0,0.2,0,0.3,0c1.5,0,3,0.5,4.1,1.5c1.4,1.3,2.2,3.1,2.2,5.1C25.1,34.2,23.8,36.5,21.6,37.7z"></path><path class="st0" d="M22,27.7c-0.9-0.8-2-1.2-3.2-1.2c-2.8,0.1-5,2.3-4.9,5.1c0,0.1,0,0.1,0,0.2c-0.1,2.8,2,5.1,4.8,5.2c0,0,0.1,0,0.1,0c0.8,0,1.6-0.2,2.3-0.5c1.7-0.9,2.7-2.8,2.7-4.7C23.7,30.2,23.1,28.8,22,27.7z M19.1,33.5c-0.3,0.5-0.8,0.7-1.3,0.7c-0.5,0-1-0.3-1.3-0.8c-0.4-0.5-0.5-1.2-0.5-1.8c0-0.6,0.2-1.3,0.5-1.8l0,0c0.3-0.4,0.8-0.7,1.3-0.7c0.5,0,1,0.3,1.3,0.7c0.4,0.5,0.5,1.2,0.5,1.8C19.6,32.3,19.5,32.9,19.1,33.5z"></path><path class="st0" d="M18.2,30.2c-0.3,0-0.6,0.3-0.6,0.6c0,0.3,0.3,0.6,0.6,0.6c0,0,0,0,0,0c0.3,0,0.6-0.3,0.6-0.6l0,0C18.8,30.5,18.5,30.2,18.2,30.2C18.2,30.2,18.2,30.2,18.2,30.2z"></path><path class="st0" d="M39.7,28.6L39.7,28.6c-0.1-0.2-0.2-0.3-0.3-0.5l0,0c-0.1-0.1-0.3-0.3-0.4-0.4l-0.3-0.3c-0.8-0.6-1.8-0.9-2.8-0.9c-0.5,0-1,0.1-1.5,0.2c-0.3,0.1-0.6,0.2-0.9,0.4c-0.2,0.1-0.3,0.2-0.5,0.3c-1.3,1-2.1,2.6-2,4.3c-0.1,2.6,1.8,4.9,4.3,5.2c0.2,0,0.3,0,0.5,0c0.2,0,0.4,0,0.6,0c0.6-0.1,1.1-0.2,1.6-0.5c0.1-0.1,0.3-0.2,0.4-0.2l0.1,0c0.1-0.1,0.2-0.2,0.3-0.3l0,0c1.2-1,1.9-2.6,1.9-4.2C40.6,30.7,40.3,29.6,39.7,28.6z M36,33.5c-0.3,0.5-0.8,0.7-1.3,0.7c-0.5,0-1-0.3-1.3-0.8c-0.3-0.6-0.5-1.2-0.5-1.8c0-0.6,0.2-1.3,0.5-1.8l0,0c0.5-0.7,1.4-0.9,2.1-0.4c0.2,0.1,0.3,0.3,0.5,0.5c0.3,0.5,0.5,1.2,0.5,1.8C36.6,32.3,36.4,32.9,36,33.5z"></path><path class="st0" d="M35.1,30.2c-0.3,0-0.6,0.3-0.6,0.6c0,0,0,0,0,0c0,0.3,0.3,0.6,0.6,0.6l0,0c0.3,0,0.6-0.3,0.6-0.6c0,0,0,0,0,0C35.8,30.5,35.5,30.2,35.1,30.2z"></path><path class="st0" d="M191,14.7c0.4-0.2,0.6-0.5,0.6-0.9c0-0.7-0.5-1.1-1.3-1.1h-1.1c-0.2,0-0.4,0.2-0.4,0.4c0,0,0,0,0,0v2.3c0,0.2,0.2,0.4,0.4,0.4s0.4-0.2,0.4-0.4v-0.6h0.4l0.7,0.8c0.1,0.1,0.2,0.2,0.3,0.2c0.2,0,0.4-0.2,0.4-0.4c0,0,0,0,0,0c0-0.1,0-0.2-0.1-0.3L191,14.7z M190.3,14.2h-0.6v-0.8h0.6c0.3,0,0.5,0.1,0.5,0.4S190.5,14.2,190.3,14.2L190.3,14.2z"></path><path class="st0" d="M190.1,17.5c-1.8,0-3.3-1.4-3.3-3.2c0-1.8,1.4-3.3,3.2-3.3c1.8,0,3.3,1.4,3.3,3.2c0,0,0,0,0,0.1C193.3,16,191.9,17.5,190.1,17.5z M190.1,11.6c-1.5,0-2.7,1.1-2.7,2.6c0,1.5,1.1,2.7,2.6,2.7c1.5,0,2.7-1.1,2.7-2.6c0,0,0,0,0,0C192.7,12.8,191.5,11.6,190.1,11.6z"></path></svg>