<?xml version="1.0" encoding="utf-8"?>
<!-- Generator: Adobe Illustrator 24.1.1, SVG Export Plug-In . SVG Version: 6.00 Build 0)  -->
<svg fill="#4c4c4c" version="1.1" id="Layer_1" xmlns="http://www.w3.org/2000/svg" xmlns:xlink="http://www.w3.org/1999/xlink" x="0px" y="0px"
	 viewBox="0 0 512 512" style="enable-background:new 0 0 512 512;" xml:space="preserve">
<g>
	<path d="M124.7,170.3c-8.2,0-16,1.9-23.4,5.6c-17.8-19.3-34.9-43-51.2-71.2c20-27.5,43.8-49.3,71.2-65.7
		c34.1,14.1,62.3,29.3,84.6,45.6c-2.2,5.9-3.3,11.9-3.3,17.8c0,2.2,0.7,6.3,2.2,12.2c-23,17.8-44.5,37.1-64.6,57.9
		C134.3,171,129.1,170.3,124.7,170.3 M70.1,224.8c0,12.6,3.7,23.7,11.1,33.4C59,300.5,44.2,343.6,36.7,387.3C12.2,348,0,304.2,0,256
		c0-40.8,9.3-79,27.8-114.6c14.1,23,29.7,43.8,46.7,62.3C71.6,212.6,70.1,219.6,70.1,224.8 M257.1,47.9c-10.4,0-19.7,2.6-27.8,7.8
		c-21.5-15.6-42.7-28.6-63.4-39C197,5.6,227.1,0,256,0c44.5,0,87.2,11.5,128,34.5c-28.2,5.2-58.2,14.5-90.2,27.8
		C284.2,52.7,272,47.9,257.1,47.9 M338.4,303.9C279,295,225.2,274.2,177,241.5c1.5-7.4,2.2-13,2.2-16.7c0-8.9-2.6-18.6-7.8-28.9
		c14.1-16.3,32.3-33,54.5-50.1c9.6,7.4,20,11.1,31.2,11.1c5.2,0,12.2-1.5,21.1-4.5c34.9,40.1,59.7,84.6,74.6,133.6
		C346.9,291.2,342.1,297.2,338.4,303.9 M409.6,377.3c14.1-5.2,24.1-16.3,30.1-33.4c21.5-1.5,41.6-4.8,60.1-10
		c-17.1,54.2-47.9,97.2-92.4,129.1c2.2-17.8,3.3-36,3.3-54.5c0-3.7-0.2-8.9-0.6-15.6C409.8,386.2,409.6,381,409.6,377.3
		 M326.1,340.6c-70.5,35.6-126.9,86.1-169.2,151.4c-33.4-13.4-62.7-33.8-87.9-61.2c4.5-53.4,19.3-104.3,44.5-152.5
		c2.2,0.7,5.9,1.1,11.1,1.1c11.1,0,20.8-2.6,28.9-7.8C206.3,307.9,263.8,330.9,326.1,340.6 M428.5,66.8
		C484.2,117.2,512,180.3,512,256c0,8.2-0.7,20.4-2.2,36.7c-23.7,6.7-47.9,11.1-72.3,13.4c-8.9-20.8-25.2-31.9-49-33.4
		c-17.8-54.2-45.3-103.1-82.4-146.9c3.7-7.4,5.6-15.2,5.6-23.4v-5.6C348.8,81.3,387.7,71.2,428.5,66.8 M352.8,369.5
		c5.2,3.7,11.1,7,17.8,10c0.7,6.7,1.1,16.3,1.1,28.9c0,29.7-2.6,56.4-7.8,80.1c-31.9,15.6-67.9,23.4-108,23.4
		c-21.5,0-42.3-2.2-62.3-6.7C234.5,446,287.5,400.7,352.8,369.5"/>
</g>
</svg>
